<svg xmlns="http://www.w3.org/2000/svg" width="1000" height="1000" fill="#9ca3af" xmlns:v="https://vecta.io/nano"><path d="M570.67 179.354c-26.568 0-51.549 9.883-70.67 27.563-19.119-17.68-44.102-27.563-70.67-27.563-57.512 0-104.299 46.787-104.299 104.297 0 50.883 29.766 99.881 86.078 141.703 41.184 30.586 81.854 46.666 83.566 47.336a14.64 14.64 0 0 0 5.324 1.004 14.6 14.6 0 0 0 5.324-1.004c1.711-.67 42.381-16.75 83.566-47.336 56.313-41.822 86.078-90.82 86.078-141.703.002-57.51-46.787-104.297-104.297-104.297zm-70.68 263.865c-26.857-11.775-145.734-69.045-145.734-159.57 0-41.396 33.678-75.074 75.076-75.074 23.248 0 44.811 10.518 59.162 28.852 2.77 3.539 7.014 5.607 11.506 5.607a14.61 14.61 0 0 0 11.506-5.607c14.352-18.336 35.914-28.852 59.162-28.852 41.396 0 75.076 33.678 75.076 75.074 0 90.33-118.918 147.765-145.754 159.57zM500 0C331.768 0 194.9 136.867 194.9 305.098c0 205.332 211.391 473.119 276.178 550.303 7.197 8.572 17.736 13.488 28.922 13.488a37.67 37.67 0 0 0 28.92-13.488c64.787-77.184 276.178-344.971 276.178-550.303C805.098 136.867 668.232 0 500 0zm6.537 836.609c-2.23 2.658-5.053 3.053-6.537 3.053s-4.307-.396-6.537-3.053c-63.184-75.271-269.338-336.053-269.338-531.512C224.125 152.98 347.881 29.223 500 29.223s275.875 123.756 275.875 275.875c0 195.459-206.154 456.24-269.338 531.511zm383.992 89.17l-62.291-158.074c-8.234-20.896-28.068-34.398-50.527-34.398H660.357c-8.07 0-14.611 6.541-14.611 14.611s6.541 14.611 14.611 14.611h117.354a24.94 24.94 0 0 1 23.338 15.891l62.291 158.074c3.092 7.844 2.143 16.344-2.604 23.314S848.433 970.777 840 970.777H160c-8.434 0-15.99-3.998-20.736-10.969s-5.695-15.471-2.602-23.314l60.678-153.982c4.781-12.139 16.303-19.98 29.348-19.98h109.131c8.07 0 14.611-6.541 14.611-14.611s-6.543-14.611-14.611-14.611H226.688c-25.133 0-47.324 15.107-56.537 38.488L109.473 925.78a54.26 54.26 0 0 0 5.633 50.473C125.229 991.123 142.012 1000 160 1000h680c17.988 0 34.77-8.877 44.893-23.746a54.27 54.27 0 0 0 5.636-50.475z"/></svg>