<svg xmlns="http://www.w3.org/2000/svg" width="1000" height="1000" xmlns:v="https://vecta.io/nano"><path fill="#9ca3af" d="M989.564 580.916c-19.012-78.041-65.246-146.951-130.184-194.035-61.814-44.818-137.082-67.512-212.813-64.373-34.908-74.916-95.688-134.111-172.17-167.342-7.508-3.258-16.232.182-19.496 7.686s.18 16.234 7.686 19.496c72.75 31.607 129.939 88.924 161.037 161.389 6.807 15.861 12.324 32.385 16.398 49.113 1.082 4.441 2.08 9.01 3.051 13.969 14.838 75.733.879 153.819-39.305 219.887-37.988 62.457-96.293 109.045-165.123 132.244a239.8 239.8 0 0 1-3.564-8.551c-.014-.033-.025-.064-.037-.098-2.182-5.531-4.15-11.156-5.928-16.85l-.424-1.373a247.56 247.56 0 0 1-2.336-8.115l-.053-.205C555.76 680.309 634.051 545.514 605.77 410.449c-.697-3.338-1.324-6.127-1.971-8.781-4.918-20.182-12.107-39.744-21.371-58.145-.02-.039-.041-.074-.061-.113-.063-.123-.127-.242-.193-.363-27.201-53.754-72.348-97.518-127.193-123.258-26.293-12.34-54.355-20.279-82.959-23.703l105.26-97.84a14.82 14.82 0 0 0 2.215-19.113l-.07-.104-48.664-72.473A14.82 14.82 0 0 0 418.463 0H260.748c-4.938 0-9.549 2.459-12.303 6.557l-48.736 72.58a14.82 14.82 0 0 0 2.215 19.113l105.25 97.832a270.53 270.53 0 0 0-31.932 5.756C129.564 237.328 39.92 384.721 75.406 530.398c14.631 60.059 49.652 113.805 98.613 151.342 44.982 34.486 100.053 54.189 156.295 56.117l.82 3.461 2.082 8.082.518 1.863 1.826 6.396.529 1.752 2.127 6.777.377 1.16 2.715 7.93c-65.174.33-129.379-20.086-182.752-58.588-59.568-42.973-101.965-106-119.375-177.471-17.379-71.338-8.787-146.684 24.197-212.158 32.619-64.752 87.018-116.16 153.178-144.754 7.512-3.248 10.969-11.969 7.723-19.48s-11.971-10.973-19.48-7.723c-72.521 31.346-132.145 87.68-167.885 158.625C.766 385.49-8.652 468.063 10.391 546.236c19.08 78.32 65.545 147.391 130.83 194.488 57.943 41.801 127.551 64.197 198.309 64.195 4.605 0 9.217-.123 13.83-.313 55.623 119.1 176.297 195.395 306.998 195.393 26.471 0 53.359-3.131 80.193-9.668 181.529-44.222 293.236-227.884 249.013-409.415zM629.09 642.105c40.832-67.133 56.934-145.6 46.098-222.83 48.219 2.988 95.209 20.588 133.703 50.416 43.709 33.869 73.744 80.232 86.863 134.08C927.375 733.574 847.5 864.9 717.697 896.521c-62.877 15.32-127.957 5.234-183.252-28.396-34.225-20.816-62.154-49.115-82.109-82.566 73.602-25.889 135.906-76.289 176.754-143.454zm-208.735 52.352c-7.57-53.926 3.164-108.527 31.074-156.039 29.203-49.713 74.305-86.785 128.141-105.732 15.873 113.552-51.082 223.636-159.215 261.771zM268.645 29.635h141.918l28.764 42.836H239.883l28.762-42.836zm-19.047 72.47H429.61l-90.006 83.662-90.006-83.662zm75.142 605.791c-47.779-2.939-94.355-20.283-132.688-49.674-44.248-33.924-74.625-80.551-87.85-134.84-31.62-129.8 48.255-261.128 178.058-292.751 54.289-13.227 109.664-7.695 160.137 15.99 43.73 20.521 80.506 53.904 105.125 94.984-76.035 26.738-139.635 79.35-180.391 149.703-38.268 66.059-52.904 141.844-42.391 216.588zm408.797 253.643c-24.498 5.969-49.014 8.824-73.178 8.822-123.039-.01-236.354-74.117-284.785-188.756l-1.572-3.771-.611-1.533-1.859-4.738-.266-.713-2.027-5.498-.063-.178-2.066-5.982c-.004-.012-.008-.021-.012-.033l-1.969-6.105-.131-.436-1.713-5.717-.525-1.885-1.203-4.342-1.625-6.371-1.5-6.496-.549-2.568-.609-2.959-.393-1.949c-.018-.09-.045-.174-.063-.262-14.316-73.408-1.74-148.83 35.957-213.906 37.891-65.41 97.412-114.01 168.521-137.957a244.24 244.24 0 0 1 12.344 35.176c-62.166 20.826-114.275 63.023-147.758 120.021-34.465 58.666-45.586 126.965-31.695 193.285.008.047.016.075.022.108l.758 3.518 1.193 5.166 1.855 7.172.492 1.744 1.596 5.52.512 1.652 1.846 5.77.387 1.15 2.316 6.586.086.234c21.102 57.492 60.703 105.838 113.803 138.135 43.137 26.236 91.574 39.705 140.807 39.703 21.592 0 43.344-2.592 64.859-7.834 145.678-35.488 235.322-182.881 199.834-328.559-14.723-60.432-48.439-112.471-97.506-150.49-45.143-34.979-100.707-55.018-157.402-56.961l-.824-3.471a340.81 340.81 0 0 0-10.182-33.975c65.416-.391 129.879 20.248 183.348 59.016 59.252 42.959 101.436 105.84 118.787 177.057 40.351 165.655-61.585 333.255-227.237 373.61z"/></svg>