<?xml version="1.0" encoding="utf-8"?>
<!-- Generator: Adobe Illustrator 16.0.0, SVG Export Plug-In . SVG Version: 6.00 Build 0)  -->
<svg version="1.2" baseProfile="tiny" id="Layer_1" xmlns="http://www.w3.org/2000/svg" xmlns:xlink="http://www.w3.org/1999/xlink"
	 x="0px" y="0px" width="48px" height="48px" viewBox="0 0 48 48" xml:space="preserve">
<g>
	<path fill="#CAA734" d="M19.656,20.869v0.626c0,0.324,0.262,0.585,0.585,0.585c0.324,0,0.586-0.262,0.586-0.585v-0.626
		c0-0.324-0.263-0.586-0.586-0.586C19.918,20.283,19.656,20.545,19.656,20.869z"/>
	<path fill="#CAA734" d="M27.171,20.869v0.626c0,0.324,0.262,0.585,0.586,0.585c0.323,0,0.586-0.262,0.586-0.585v-0.626
		c0-0.324-0.263-0.586-0.586-0.586C27.433,20.283,27.171,20.545,27.171,20.869z"/>
	<path fill="#CAA734" d="M21.436,18.222c-0.079-0.314-0.396-0.505-0.71-0.426l-2.505,0.626c-0.314,0.079-0.505,0.396-0.426,0.71
		c0.066,0.266,0.305,0.444,0.568,0.444c0.047,0,0.095-0.006,0.143-0.018l2.505-0.626C21.324,18.854,21.515,18.536,21.436,18.222z"/>
	<path fill="#CAA734" d="M29.637,19.576c0.262,0,0.501-0.178,0.567-0.444c0.078-0.314-0.112-0.632-0.427-0.71l-2.505-0.626
		c-0.313-0.079-0.632,0.112-0.71,0.426c-0.079,0.314,0.111,0.632,0.426,0.71l2.505,0.626C29.541,19.57,29.589,19.576,29.637,19.576z
		"/>
	<path fill="#CAA734" d="M38.072,39.174l-6.504-2.032c-0.806-0.252-1.347-0.987-1.347-1.832v-1.29c0-0.323-0.263-0.585-0.586-0.585
		c-0.324,0-0.586,0.262-0.586,0.585v1.29c0,0.975,0.447,1.858,1.179,2.432c-1.647,1.647-3.887,2.582-6.229,2.582
		c-2.338,0-4.583-0.936-6.229-2.581c0.731-0.573,1.179-1.458,1.179-2.433V31.98c1.518,0.895,3.253,1.373,5.05,1.373
		c2.549,0,4.974-0.962,6.828-2.707c1.71-1.611,2.787-3.746,3.068-6.061h0.75c0.673,0,1.324-0.28,1.788-0.769
		c0.47-0.495,0.709-1.144,0.674-1.828c-0.046-0.849-0.535-1.579-1.249-1.986v-9.155c0-3.776-3.073-6.849-6.85-6.849h-8.141
		c-1.248,0-2.355,0.753-2.835,1.879H17.11c-2.741,0-4.97,2.229-4.97,4.97v7.146c0,0.324,0.262,0.586,0.586,0.586
		s0.585-0.262,0.585-0.586v-7.146c0-2.094,1.704-3.798,3.798-3.798h1.341c0.267,0,0.5-0.181,0.567-0.439
		c0.22-0.848,0.98-1.44,1.85-1.44h8.141c3.131,0,5.677,2.546,5.677,5.677v8.812c-0.048-0.002-0.098-0.004-0.146-0.004h-0.521
		c-0.712,0-1.292-0.58-1.292-1.293v-3.131c0-1.704-1.387-3.091-3.091-3.091c-0.324,0-0.586,0.262-0.586,0.586
		s0.262,0.585,0.586,0.585c1.058,0,1.919,0.861,1.919,1.919v3.131c0,0.918,0.505,1.721,1.252,2.145v1.613
		c0,0.713-0.579,1.293-1.292,1.293h-15.03c-0.713,0-1.293-0.58-1.293-1.293v-1.613c0.747-0.424,1.252-1.226,1.252-2.145v-3.131
		c0-1.058,0.861-1.919,1.919-1.919h8.767c0.324,0,0.586-0.262,0.586-0.585s-0.262-0.586-0.586-0.586h-8.767
		c-1.704,0-3.091,1.387-3.091,3.091v3.131c0,0.713-0.58,1.293-1.293,1.293h-0.52c-1.371,0-2.499,1.024-2.567,2.333
		c-0.036,0.684,0.203,1.333,0.673,1.828c0.464,0.489,1.115,0.769,1.788,0.769h0.751c0.281,2.314,1.357,4.449,3.068,6.061
		c0.195,0.184,0.398,0.358,0.605,0.524v4.139c0,0.845-0.541,1.58-1.347,1.832l-6.504,2.032c-1.297,0.405-2.169,1.591-2.169,2.95
		v1.29C7.757,43.737,8.019,44,8.343,44s0.585-0.263,0.585-0.586v-1.29c0-0.844,0.542-1.579,1.347-1.832l3.81-1.19
		c1.112,1.451,2.545,2.656,4.164,3.498c1.763,0.916,3.751,1.4,5.751,1.4c1.989,0,3.968-0.479,5.724-1.387
		c1.628-0.841,3.072-2.053,4.19-3.512l3.81,1.19c0.806,0.253,1.347,0.988,1.347,1.832v1.29c0,0.323,0.263,0.586,0.586,0.586
		s0.586-0.263,0.586-0.586v-1.29C40.241,40.765,39.37,39.579,38.072,39.174L38.072,39.174z M33.979,20.827
		C33.98,20.827,33.98,20.827,33.979,20.827z M33.979,22.121v-1.292h0.56c0.735,0,1.361,0.548,1.397,1.222
		c0.019,0.359-0.106,0.701-0.353,0.96c-0.247,0.26-0.58,0.403-0.938,0.403h-1.034C33.845,23.038,33.979,22.595,33.979,22.121z
		 M13.353,23.414c-0.358,0-0.691-0.143-0.938-0.403c-0.247-0.26-0.372-0.601-0.353-0.96c0.035-0.674,0.662-1.222,1.397-1.222h0.56
		v1.292c0,0.474,0.135,0.917,0.368,1.293H13.353L13.353,23.414z M15.286,24.586h17.427c-0.063,0.457-0.162,0.902-0.292,1.333H21.494
		c-0.324,0-0.586,0.263-0.586,0.586c0,0.324,0.262,0.586,0.586,0.586h9.438c-1.666,1.226-4.214,1.96-6.933,1.96
		c-2.719,0-5.267-0.734-6.932-1.96h1.922c0.323,0,0.586-0.262,0.586-0.586c0-0.323-0.263-0.586-0.586-0.586h-3.412
		C15.447,25.488,15.349,25.043,15.286,24.586L15.286,24.586z M16.681,28.254c1.859,1.249,4.476,1.969,7.318,1.969
		s5.46-0.72,7.318-1.97c-1.585,2.373-4.288,3.929-7.318,3.929S18.266,30.626,16.681,28.254L16.681,28.254z M29.185,41.572
		c-1.612,0.834-3.357,1.256-5.186,1.256c-3.368,0-6.575-1.521-8.715-4.101l1.391-0.435c1.886,2.036,4.546,3.202,7.324,3.202
		c2.784,0,5.438-1.164,7.325-3.202l1.391,0.435C31.743,39.899,30.533,40.875,29.185,41.572L29.185,41.572z"/>
</g>
</svg>
