<svg xmlns="http://www.w3.org/2000/svg" baseProfile="tiny" width="1000" height="1000" fill="#c08b3c" xmlns:v="https://vecta.io/nano"><path d="M921.543 225.1H768.932c-7.67 0-14.529-5.141-16.684-12.502l-20.416-69.756c-5.857-20.008-24.51-33.982-45.357-33.982H379.93c-20.848 0-39.498 13.975-45.355 33.982l-20.418 69.756a17.48 17.48 0 0 1-16.684 12.502h-32.842v-35.574c0-17.982-14.629-32.611-32.611-32.611H107.824c-17.982 0-32.611 14.629-32.611 32.611v35.656C33.451 226.891 0 261.383 0 303.557v509.127c0 .973.025 2.068.082 3.26 1.717 41.754 36.205 75.197 78.375 75.197h840.299c44.799 0 81.244-36.445 81.244-81.244v-506.34c0-43.262-35.197-78.457-78.457-78.457zm-817.035-35.575a3.32 3.32 0 0 1 3.314-3.314H232.02a3.32 3.32 0 0 1 3.314 3.314V225.1H104.508v-35.575zm51.599 672.317H111.66c-50.566 0-80.291-16.725-82.252-46.027l-.025-.334c-.055-.922-.086-1.854-.086-2.799V303.557c0-27.107 22.053-49.16 49.16-49.16h77.648c27.131 0 49.201 22.072 49.201 49.201v509.043h.002c.001 27.13-22.072 49.201-49.201 49.201zm762.649.002H217.209c10.869-13.471 17.396-30.586 17.396-49.201V303.6c0-18.617-6.527-35.73-17.396-49.201h80.266c20.594 0 39.018-13.805 44.801-33.568l20.416-69.756c2.227-7.605 9.316-12.916 17.238-12.916h306.545c7.924 0 15.014 5.311 17.238 12.916l20.416 69.756c5.785 19.764 24.209 33.568 44.801 33.568h152.611c27.107 0 49.16 22.053 49.16 49.16v506.338h.002c0 28.644-23.305 51.947-51.947 51.947zM533.203 276.863c-150.445 0-272.844 122.396-272.844 272.844s122.398 272.844 272.844 272.844 272.844-122.396 272.844-272.844-122.399-272.844-272.844-272.844zm0 516.391c-134.291 0-243.547-109.254-243.547-243.547S398.912 306.16 533.203 306.16 776.75 415.414 776.75 549.707 667.496 793.254 533.203 793.254zm0-461.223c-120.027 0-217.676 97.648-217.676 217.676s97.648 217.676 217.676 217.676 217.676-97.648 217.676-217.676-97.649-217.676-217.676-217.676zm0 406.055c-103.873 0-188.379-84.508-188.379-188.379s84.506-188.379 188.379-188.379 188.379 84.508 188.379 188.379-84.506 188.379-188.379 188.379zm53.725-297.166c-20.006 0-38.879 7.057-53.725 19.756-14.846-12.699-33.719-19.756-53.725-19.756-45.672 0-82.83 37.158-82.83 82.83 0 94.574 125.857 144.91 131.217 147.008a14.65 14.65 0 0 0 10.676 0c1.318-.516 32.664-12.91 64.348-36.441 43.744-32.488 66.867-70.721 66.867-110.566.002-45.673-37.154-82.831-82.828-82.831zm-53.742 200.271c-9.656-4.305-30.965-14.621-52.203-30.395-36.521-27.123-55.039-56.41-55.039-87.047 0-29.518 24.016-53.533 53.533-53.533 16.578 0 31.953 7.5 42.189 20.578a14.65 14.65 0 0 0 23.07 0c10.234-13.076 25.611-20.578 42.189-20.578 29.518 0 53.533 24.016 53.533 53.533.003 65.095-84.933 107.437-107.272 117.442z"/></svg>