<?xml version="1.0" encoding="utf-8"?>
<!-- Generator: Adobe Illustrator 16.0.0, SVG Export Plug-In . SVG Version: 6.00 Build 0)  -->
<svg version="1.2" baseProfile="tiny" id="Layer_1" xmlns="http://www.w3.org/2000/svg" xmlns:xlink="http://www.w3.org/1999/xlink"
	 x="0px" y="0px" width="48px" height="48px" viewBox="0 0 48 48" xml:space="preserve">
<g>
	<g>
		<path fill="#CAA734" d="M14.995,16.586c0.409,0.409,0.953,0.634,1.53,0.634h5.328l-1.597,1.598c-0.229,0.229-0.229,0.6,0,0.829
			c0.114,0.114,0.264,0.171,0.414,0.171s0.3-0.058,0.415-0.172l1.671-1.673c0.361-0.361,0.81-0.601,1.299-0.701
			c0.282-0.052,0.507-0.052,0.775-0.052h6.641c0.578,0,1.122-0.226,1.53-0.634l3.23-3.229c0.229-0.229,0.229-0.6,0-0.829
			s-0.6-0.229-0.828,0l-3.23,3.229c-0.188,0.188-0.437,0.291-0.702,0.291h-3.637c1.693-1.204,2.802-3.181,2.802-5.412
			c0-3.66-2.978-6.638-6.639-6.638c-3.66,0-6.638,2.978-6.638,6.638c0,2.231,1.108,4.208,2.802,5.412h-3.638
			c-0.265,0-0.514-0.103-0.701-0.291l-3.229-3.227c-0.229-0.229-0.6-0.229-0.829,0c-0.229,0.229-0.229,0.6,0,0.829L14.995,16.586z
			 M18.533,10.637c0-3.014,2.452-5.466,5.466-5.466c3.015,0,5.467,2.452,5.467,5.466s-2.452,5.466-5.467,5.466
			C20.985,16.103,18.533,13.651,18.533,10.637z"/>
		<path fill="#CAA734" d="M37.476,29.399l0.573-2.455c0.042-0.18,0.133-0.344,0.264-0.476l5.517-5.517
			c0.229-0.229,0.229-0.6,0-0.828c-0.229-0.229-0.6-0.229-0.828,0l-5.517,5.517c-0.287,0.286-0.486,0.646-0.577,1.038l-0.573,2.454
			c-0.043,0.181-0.134,0.345-0.265,0.476l-0.462,0.461L34.44,28.9c-0.229-0.229-0.6-0.229-0.828,0
			c-0.229,0.229-0.229,0.601-0.001,0.829l3.229,3.23c0.276,0.276,0.429,0.644,0.429,1.036c0,0.392-0.152,0.759-0.43,1.037
			c-0.571,0.571-1.501,0.571-2.073,0l0,0l-5.874-5.874c-0.229-0.229-0.601-0.229-0.829,0c-0.229,0.229-0.229,0.6,0,0.828
			l6.588,6.588c0.277,0.276,0.43,0.646,0.43,1.036c0,0.392-0.152,0.76-0.43,1.037c-0.571,0.571-1.502,0.571-2.073,0l-6.613-6.613
			c-0.229-0.229-0.6-0.229-0.829,0c-0.229,0.229-0.229,0.601,0,0.829l5.899,5.899h0.001c0.277,0.276,0.429,0.645,0.429,1.035
			c0,0.393-0.151,0.761-0.43,1.038c-0.571,0.571-1.501,0.571-2.073,0l-1.982-1.983c-0.079-0.544-0.326-1.067-0.744-1.485
			c-0.586-0.586-1.38-0.837-2.146-0.756c0.081-0.766-0.17-1.56-0.756-2.146c-0.585-0.586-1.38-0.838-2.146-0.757
			c0.081-0.766-0.17-1.561-0.755-2.146c-0.586-0.586-1.381-0.837-2.146-0.756c0.082-0.766-0.17-1.561-0.756-2.146
			c-1.029-1.028-2.703-1.028-3.731,0l-1.407,1.407l-0.46-0.461c-0.131-0.131-0.223-0.296-0.266-0.476l-0.573-2.454
			c-0.092-0.393-0.291-0.752-0.577-1.039L5,20.126c-0.229-0.229-0.6-0.229-0.829,0c-0.229,0.229-0.229,0.6,0,0.828l5.514,5.514
			c0.131,0.131,0.223,0.296,0.265,0.477l0.573,2.454c0.092,0.394,0.292,0.753,0.578,1.039l0.46,0.459l-1.232,1.233
			c-1.029,1.027-1.029,2.702,0,3.73c0.449,0.449,1.021,0.702,1.609,0.759c-0.384,0.952-0.191,2.085,0.579,2.856
			c0.498,0.498,1.161,0.772,1.866,0.772c0.345,0,0.68-0.065,0.991-0.191c0.057,0.587,0.31,1.158,0.759,1.607
			c0.514,0.515,1.189,0.771,1.865,0.771c0.585,0,1.17-0.193,1.65-0.579c0.095,0.503,0.336,0.983,0.725,1.371
			C20.889,43.743,21.565,44,22.24,44c0.63,0,1.26-0.224,1.759-0.671c0.484,0.435,1.104,0.673,1.76,0.673
			c0.705,0,1.367-0.275,1.865-0.773c0.378-0.379,0.628-0.854,0.726-1.368c1.035,0.829,2.556,0.764,3.515-0.195
			c0.438-0.437,0.702-1.001,0.761-1.608c0.952,0.384,2.085,0.19,2.854-0.58c0.499-0.498,0.773-1.161,0.773-1.865
			c0-0.346-0.066-0.681-0.192-0.991c0.588-0.058,1.159-0.311,1.607-0.759c0.499-0.498,0.773-1.16,0.773-1.865
			c0-0.706-0.274-1.368-0.773-1.865l-1.231-1.233l0.46-0.459C37.183,30.154,37.383,29.794,37.476,29.399L37.476,29.399z
			 M13.347,38.648c-0.571-0.572-0.571-1.502,0-2.073l0.706-0.707c0.003-0.002,0.006-0.005,0.008-0.007
			c0.001-0.002,0.002-0.003,0.004-0.004l0.681-0.682c0.229-0.229,0.229-0.6,0-0.828c-0.229-0.229-0.6-0.229-0.829,0l-0.689,0.688
			c-0.572,0.568-1.499,0.566-2.069-0.003c-0.572-0.572-0.572-1.503,0-2.074l3.468-3.468c0.277-0.277,0.645-0.43,1.037-0.43
			c0.391,0,0.759,0.152,1.036,0.43c0.571,0.571,0.572,1.499,0.002,2.07c-0.001,0.001-0.001,0.002-0.002,0.003l-0.85,0.85
			c-0.229,0.229-0.229,0.601,0,0.829c0.229,0.229,0.6,0.229,0.829,0l0.846-0.847c0.002,0,0.003-0.002,0.005-0.003
			c0-0.002,0.001-0.002,0.002-0.003c0.572-0.568,1.5-0.567,2.071,0.002c0.57,0.57,0.571,1.498,0.004,2.069
			c-0.001,0.002-0.002,0.004-0.004,0.005l-3.468,3.468c-0.004,0.004-0.008,0.009-0.012,0.014l-0.701,0.7
			c-0.277,0.276-0.645,0.429-1.037,0.429C13.992,39.077,13.624,38.925,13.347,38.648L13.347,38.648z M18,41.266
			c-0.392,0-0.76-0.152-1.037-0.429c-0.277-0.277-0.429-0.646-0.429-1.037c0-0.389,0.15-0.753,0.423-1.03l3.475-3.474
			c0.001-0.002,0.002-0.003,0.003-0.004c0.286-0.283,0.659-0.425,1.033-0.425c0.375,0,0.75,0.142,1.037,0.429
			c0.572,0.571,0.572,1.501,0,2.072l-3.468,3.469C18.759,41.113,18.391,41.266,18,41.266z M21.204,42.4
			c-0.572-0.571-0.572-1.502,0-2.074l2.129-2.129c0.286-0.286,0.662-0.429,1.037-0.429c0.375,0,0.751,0.143,1.037,0.429
			c0.572,0.571,0.572,1.502,0,2.073l-2.13,2.13C22.705,42.972,21.775,42.972,21.204,42.4L21.204,42.4z M26.795,42.4
			c-0.277,0.276-0.645,0.429-1.036,0.429c-0.341,0-0.664-0.115-0.926-0.328l1.401-1.401c0.235-0.235,0.415-0.504,0.543-0.79
			l0.017,0.017c0.001,0,0.001,0,0.001,0.001c0.277,0.277,0.43,0.645,0.43,1.036S27.072,42.123,26.795,42.4L26.795,42.4z"/>
		<path fill="#CAA734" d="M19.152,21.58c0.229-0.229,0.229-0.6,0-0.829c-0.229-0.229-0.6-0.229-0.828,0l-2.004,2.004
			c-1.028,1.029-1.027,2.703,0,3.73c0.498,0.498,1.161,0.772,1.866,0.772c0.705,0,1.367-0.274,1.865-0.772l3.483-3.482l1.401,0.988
			c1.127,0.792,2.527,1.13,3.89,0.946l2.854,2.856c0.114,0.115,0.264,0.172,0.414,0.172s0.3-0.057,0.414-0.172
			c0.229-0.228,0.229-0.599,0.001-0.828l-3.066-3.07c-0.139-0.138-0.337-0.198-0.527-0.161c-1.147,0.225-2.352-0.032-3.305-0.703
			l-1.804-1.271c-0.233-0.165-0.55-0.137-0.752,0.064l-3.832,3.831c-0.277,0.276-0.645,0.429-1.037,0.429
			c-0.392,0-0.76-0.152-1.037-0.429c-0.571-0.571-0.571-1.502,0-2.073L19.152,21.58z"/>
		<path fill="#CAA734" d="M24.242,13.42c0.339,0.339,0.792,0.526,1.27,0.526c0.48,0,0.932-0.187,1.271-0.526
			c0.34-0.339,0.526-0.791,0.526-1.27c0-0.48-0.187-0.931-0.526-1.271l-0.242-0.243l0.242-0.243c0.34-0.339,0.526-0.79,0.526-1.271
			c0-0.479-0.187-0.931-0.526-1.271c-0.7-0.7-1.84-0.7-2.541,0l-0.243,0.243l-0.243-0.243c-0.701-0.7-1.84-0.7-2.541,0
			c-0.339,0.34-0.526,0.791-0.526,1.271c0,0.48,0.187,0.931,0.526,1.271l0.243,0.243l-0.243,0.243
			c-0.339,0.339-0.526,0.79-0.526,1.271c0,0.479,0.187,0.931,0.526,1.27s0.791,0.526,1.27,0.526c0.48,0,0.931-0.187,1.27-0.526
			l0.243-0.243L24.242,13.42z M23.584,11.934l-0.657,0.657c-0.118,0.118-0.274,0.183-0.441,0.183c-0.167,0-0.323-0.064-0.441-0.183
			s-0.183-0.275-0.183-0.441c0-0.167,0.065-0.324,0.183-0.441l0.657-0.657c0.229-0.229,0.229-0.6,0-0.829l-0.657-0.657
			c-0.118-0.118-0.183-0.274-0.183-0.441c0-0.167,0.065-0.323,0.183-0.441c0.243-0.243,0.639-0.243,0.883,0l0.657,0.657
			c0.11,0.11,0.259,0.172,0.415,0.172c0.155,0,0.304-0.062,0.414-0.172l0.658-0.657c0.243-0.243,0.64-0.243,0.883,0
			c0.118,0.118,0.183,0.275,0.183,0.441c0,0.167-0.064,0.324-0.183,0.441l-0.657,0.657c-0.11,0.11-0.172,0.259-0.172,0.415
			c0,0.156,0.062,0.305,0.172,0.415l0.657,0.657c0.118,0.118,0.183,0.274,0.183,0.441c0,0.167-0.064,0.324-0.183,0.441
			c-0.118,0.118-0.275,0.183-0.442,0.183c-0.166,0-0.323-0.064-0.441-0.183l-0.657-0.657c-0.11-0.11-0.259-0.172-0.414-0.172
			C23.843,11.762,23.694,11.824,23.584,11.934z"/>
	</g>
</g>
</svg>
