<?xml version="1.0" encoding="utf-8"?>
<!-- Generator: Adobe Illustrator 16.0.0, SVG Export Plug-In . SVG Version: 6.00 Build 0)  -->
<svg version="1.2" baseProfile="tiny" id="Layer_1" xmlns="http://www.w3.org/2000/svg" xmlns:xlink="http://www.w3.org/1999/xlink"
	 x="0px" y="0px" width="48px" height="48px" viewBox="0 0 48 48" xml:space="preserve">
<g>
	<g>
		<path fill="#CAA734" d="M14.515,42.828H4.586C4.262,42.828,4,43.091,4,43.414S4.262,44,4.586,44h9.929
			c0.324,0,0.586-0.263,0.586-0.586S14.838,42.828,14.515,42.828z"/>
		<path fill="#CAA734" d="M10.979,17.641c0.03,0,0.06-0.001,0.09-0.002c-0.029,0.17-0.044,0.344-0.044,0.521
			c0,1.715,1.396,3.111,3.111,3.111c1.715,0,3.111-1.396,3.111-3.111c0-1.716-1.396-3.111-3.111-3.111
			c-0.353,0-0.692,0.06-1.009,0.168c-0.128-1.071-1.042-1.905-2.148-1.905c-1.193,0-2.165,0.971-2.165,2.164
			S9.785,17.641,10.979,17.641z M16.075,18.16c0,1.069-0.87,1.939-1.939,1.939s-1.939-0.87-1.939-1.939s0.87-1.939,1.939-1.939
			S16.075,17.091,16.075,18.16z M10.979,14.484c0.547,0,0.992,0.445,0.992,0.992c0,0.547-0.445,0.993-0.992,0.993
			c-0.547,0-0.993-0.445-0.993-0.993C9.986,14.93,10.431,14.484,10.979,14.484z"/>
		<path fill="#CAA734" d="M43.414,8.499h-3.156c-0.324,0-0.586,0.262-0.586,0.586v1.229H35.24V8.329h2.57
			c0.324,0,0.586-0.263,0.586-0.586V4.586C38.396,4.262,38.135,4,37.811,4h-5.432c-0.323,0-0.586,0.262-0.586,0.586
			s0.263,0.586,0.586,0.586h4.846v1.985h-8.298V5.172h0.718c0.323,0,0.586-0.262,0.586-0.586S29.968,4,29.645,4h-1.304
			c-0.324,0-0.586,0.262-0.586,0.586v3.157c0,0.323,0.262,0.586,0.586,0.586h2.57v1.984h-4.623c-2.934,0-5.321,2.387-5.321,5.321
			v3.834h-1.229c-0.324,0-0.586,0.262-0.586,0.586v3.157c0,0.324,0.262,0.586,0.586,0.586h1.229v2.742
			c-0.204-0.029-0.411-0.045-0.621-0.045c-0.446,0-0.881,0.066-1.3,0.198c-0.813-1.506-2.399-2.463-4.126-2.463
			c-1.789,0-3.381,0.988-4.177,2.556c-0.071-0.005-0.141-0.008-0.211-0.008c-1.182,0-2.223,0.729-2.648,1.795
			c-0.03-0.001-0.059-0.001-0.089-0.001C5.702,28.571,4,30.273,4,32.365c0,0.324,0.262,0.586,0.586,0.586h3.257
			c0.602,0,1.182-0.181,1.678-0.522l1.074-0.741c0.299-0.206,0.649-0.314,1.012-0.314h0.477c0.155,0,0.304-0.063,0.415-0.172
			l3.929-3.929c0.206-0.206,0.479-0.319,0.77-0.319c0.29,0,0.563,0.113,0.769,0.318c0.424,0.425,0.424,1.115,0,1.54l-1.561,1.561
			c-0.167,0.168-0.217,0.42-0.127,0.639c0.091,0.219,0.305,0.361,0.542,0.361h9.233c0.275,0,0.535,0.107,0.73,0.303
			c0.194,0.195,0.303,0.455,0.303,0.73c0,0.525-0.428,0.952-0.953,0.952c0,0,0,0-0.001,0h-5.476c-0.324,0-0.586,0.263-0.586,0.586
			c0,0.324,0.262,0.586,0.586,0.586h8.001c0.266,0,0.514,0.104,0.701,0.291s0.291,0.437,0.291,0.701
			c0,0.548-0.445,0.993-0.992,0.993h-8.001c-0.324,0-0.586,0.262-0.586,0.586c0,0.323,0.262,0.586,0.586,0.586h6.261
			c0.002,0,0.003,0,0.005,0c0.265,0,0.514,0.104,0.701,0.29c0.188,0.188,0.291,0.438,0.291,0.702c0,0.547-0.445,0.992-0.992,0.992
			h-6.266c-0.324,0-0.586,0.263-0.586,0.586c0,0.324,0.262,0.586,0.586,0.586h3.897c0.001,0,0.001,0,0.003,0
			c0.264,0.001,0.512,0.104,0.698,0.29c0.188,0.188,0.291,0.438,0.291,0.703c0,0.547-0.445,0.992-0.992,0.992H17.25
			c-0.324,0-0.586,0.262-0.586,0.586c0,0.323,0.262,0.586,0.586,0.586h7.303c1.193,0,2.164-0.971,2.164-2.164
			c0-0.352-0.083-0.689-0.24-0.993h0.444c1.193,0,2.164-0.971,2.164-2.164c0-0.354-0.085-0.694-0.244-1
			c1.107-0.094,1.979-1.025,1.979-2.157c0-0.577-0.225-1.121-0.633-1.529c-0.408-0.409-0.952-0.635-1.531-0.635h-0.625
			c0.145-0.286,0.226-0.61,0.226-0.952c0-0.381-0.097-0.747-0.277-1.07v-7.539h1.229c0.324,0,0.586-0.262,0.586-0.586v-3.157
			c0-0.324-0.262-0.586-0.586-0.586H27.98v-2.222h6.086c0.323,0,0.586-0.262,0.586-0.586s-0.263-0.586-0.586-0.586h-6.673
			c-0.323,0-0.586,0.262-0.586,0.586v2.808h-4.668v-3.833c0-2.288,1.861-4.149,4.149-4.149h13.384v4.589H36.8
			c-0.323,0-0.586,0.262-0.586,0.586s0.263,0.586,0.586,0.586h2.872v1.309c0,0.324,0.262,0.586,0.586,0.586h3.156
			c0.323,0,0.586-0.262,0.586-0.586v-9.47C44,8.761,43.737,8.499,43.414,8.499L43.414,8.499z M15.598,26.443l-3.757,3.758h-0.234
			c-0.602,0-1.182,0.181-1.678,0.522l-1.074,0.741c-0.299,0.206-0.649,0.314-1.012,0.314H5.239c0.267-1.164,1.311-2.036,2.556-2.036
			c0.141,0,0.282,0.011,0.419,0.033c0.313,0.052,0.61-0.155,0.669-0.467c0.152-0.788,0.845-1.36,1.648-1.36
			c0.14,0,0.281,0.018,0.419,0.053c0.287,0.072,0.583-0.08,0.689-0.356c0.53-1.363,1.817-2.244,3.28-2.244
			c0.613,0,1.202,0.161,1.717,0.449C16.247,25.95,15.89,26.151,15.598,26.443L15.598,26.443z M18.794,29.64
			c0.503-0.502,0.718-1.185,0.647-1.842c0.292-0.087,0.595-0.132,0.905-0.132c1.279,0,2.431,0.761,2.934,1.938
			c0.104,0.241,0.355,0.385,0.616,0.35c0.111-0.015,0.219-0.021,0.32-0.021c0.399,0,0.78,0.096,1.117,0.27h-7.1L18.794,29.64z
			 M26.808,29.854c-0.667-0.691-1.591-1.094-2.592-1.094c-0.015,0-0.03,0-0.044,0c-0.461-0.843-1.18-1.496-2.032-1.88v-3.083h4.668
			V29.854z M28.623,22.625h-8.299V20.64h8.299V22.625z M32.083,8.329h1.985v1.984h-1.985V8.329z M42.828,17.969h-1.984V9.67h1.984
			V17.969z"/>
	</g>
</g>
</svg>
