<svg xmlns="http://www.w3.org/2000/svg" baseProfile="tiny" width="1000" height="1000" fill="#c08b3c" xmlns:v="https://vecta.io/nano"><path d="M340.135 348.594h-53.461a14.43 14.43 0 0 0-14.426 14.426c-.002 7.969 6.457 14.426 14.426 14.426h53.461a14.43 14.43 0 0 0 14.426-14.426 14.43 14.43 0 0 0-14.426-14.426zm373.193 0h-306.07a14.43 14.43 0 0 0-14.426 14.426 14.43 14.43 0 0 0 14.426 14.426h306.07a14.43 14.43 0 0 0 14.426-14.426 14.43 14.43 0 0 0-14.426-14.426zM592.742 455.555H286.674a14.43 14.43 0 0 0-14.426 14.426 14.43 14.43 0 0 0 14.426 14.426h306.068a14.43 14.43 0 0 0 14.426-14.426 14.43 14.43 0 0 0-14.426-14.426zm120.586 0h-53.463a14.43 14.43 0 0 0-14.426 14.426 14.43 14.43 0 0 0 14.426 14.426h53.463a14.43 14.43 0 0 0 14.426-14.426c0-7.969-6.457-14.426-14.426-14.426zm244.209-110.391l-.625-.689c-11.33-11.258-25.869-18.131-41.537-19.781-.115-.012-.229-.031-.344-.043-.957-.096-1.918-.162-2.883-.221l-.646-.047c-1.17-.059-2.346-.09-3.527-.09h-47.006V47.586C860.967 21.348 839.619 0 813.381 0H186.619c-26.238 0-47.586 21.348-47.586 47.586v276.707H92.025a69.98 69.98 0 0 0-3.525.09c-.219.012-.434.035-.652.047a70.27 70.27 0 0 0-2.877.219c-.117.012-.234.031-.352.043-15.664 1.652-30.199 8.523-41.529 19.781-.219.217-.414.451-.617.68-12.287 12.533-19.885 29.68-19.885 48.578v536.83c0 19.701 8.262 37.498 21.484 50.15.188.197.367.402.566.59 3.527 3.295 7.355 6.17 11.406 8.633a70.35 70.35 0 0 0 2.846 1.637l.164.088c.902.488 1.816.957 2.738 1.404l.365.176c.855.408 1.719.801 2.592 1.174l.586.246c.803.334 1.613.654 2.428.959l.805.295c.75.27 1.504.523 2.264.768l1.01.318a72.16 72.16 0 0 0 2.117.604l1.186.313c.666.166 1.336.318 2.008.465l1.318.283a67.35 67.35 0 0 0 1.949.35l1.4.232c.658.098 1.32.174 1.982.252l1.389.164c.732.072 1.471.119 2.207.168l1.193.084c1.141.057 2.287.088 3.436.088h815.947c1.148 0 2.295-.031 3.436-.088.402-.02.799-.059 1.199-.084l2.199-.168c.469-.047.934-.109 1.4-.166l1.969-.252c.475-.07.943-.154 1.416-.234l1.932-.346 1.34-.287 1.984-.459 1.207-.32c.701-.189 1.398-.385 2.092-.596l1.033-.326c.75-.24 1.494-.492 2.234-.758l.836-.307a70.42 70.42 0 0 0 2.395-.945l.617-.262a70.52 70.52 0 0 0 2.557-1.158l.4-.191a65.98 65.98 0 0 0 2.699-1.385l.203-.109c.945-.516 1.879-1.053 2.801-1.611.014-.01.029-.018.045-.025 4.043-2.459 7.867-5.33 11.391-8.623.199-.188.379-.391.566-.588 13.225-12.65 21.486-30.449 21.486-50.15V393.73c.001-18.89-7.593-36.035-19.874-48.566zm-96.57 7.982h47.006a40.71 40.71 0 0 1 4.078.207c.299.029.592.094.889.129 1.051.129 2.1.27 3.125.479.234.047.459.119.691.17 1.086.24 2.166.502 3.219.83.131.041.258.096.389.137a40.81 40.81 0 0 1 2.895 1.061l-62.291 54.836v-57.849zm-693.08-305.56c0-10.33 8.402-18.734 18.732-18.734h626.762c10.33 0 18.732 8.404 18.732 18.734v388.807L520.652 710.57c-1.029.906-2.117 1.703-3.229 2.451-11.617 7.805-27.328 7.01-38.074-2.451L167.887 436.395V47.586zM79.582 355.117c.15-.049.297-.111.449-.158 1.043-.322 2.111-.582 3.188-.822.24-.053.475-.127.717-.176 1.023-.207 2.068-.348 3.117-.477.299-.037.594-.1.895-.131a40.71 40.71 0 0 1 4.078-.207h47.008v57.85l-62.295-54.838a40.83 40.83 0 0 1 2.843-1.041zM56.486 950.121c-3.209-5.807-5.045-12.471-5.045-19.561V393.73c0-6.371 1.518-12.381 4.145-17.752l332.203 292.436L56.486 950.121zm864.006 19.029c-.42.137-.846.256-1.27.377a40.51 40.51 0 0 1-2.34.604l-1.369.287a40.96 40.96 0 0 1-2.502.383l-1.238.154c-1.252.117-2.518.193-3.801.193H92.025c-1.283 0-2.549-.076-3.801-.193-.412-.039-.82-.102-1.23-.152-.846-.105-1.686-.229-2.516-.385-.451-.086-.9-.182-1.348-.283a40.69 40.69 0 0 1-2.381-.613l-1.219-.361c-.211-.068-.412-.156-.619-.227l330.764-281.252 50.609 44.551v-.002c1.416 1.246 2.875 2.414 4.375 3.504 10.496 7.633 22.918 11.447 35.342 11.449 7.1 0 14.197-1.246 20.938-3.738s13.119-6.23 18.781-11.213l50.607-44.551 330.766 281.252c-.204.066-.398.15-.601.216zm28.067-38.589h0a40.34 40.34 0 0 1-5.045 19.561L612.211 668.414l332.203-292.436c2.627 5.371 4.145 11.381 4.145 17.752v536.831zM549.229 70.488c-18.283 0-35.547 6.348-49.229 17.793-13.682-11.445-30.945-17.793-49.229-17.793-42.404 0-76.902 34.5-76.902 76.904 0 87.336 115.938 133.707 120.875 135.639a14.4 14.4 0 0 0 5.256.992c1.783 0 3.566-.33 5.258-.992 4.936-1.932 120.873-48.303 120.873-135.639 0-42.404-34.498-76.904-76.902-76.904zm-49.247 183.416c-8.982-4.025-28.133-13.371-47.234-27.557-33.195-24.65-50.027-51.217-50.027-78.955 0-26.496 21.557-48.051 48.051-48.051 14.879 0 28.682 6.732 37.867 18.471 2.734 3.494 6.924 5.535 11.361 5.535a14.43 14.43 0 0 0 11.361-5.535c9.188-11.738 22.988-18.471 37.867-18.471 26.494 0 48.049 21.555 48.049 48.051 0 58.667-76.367 97.088-97.295 106.512z"/></svg>